<?xml version="1.0" encoding="utf-8"?>
<!-- Generator: Adobe Illustrator 23.0.2, SVG Export Plug-In . SVG Version: 6.00 Build 0)  -->
<svg version="1.1" id="Layer_1" xmlns="http://www.w3.org/2000/svg" xmlns:xlink="http://www.w3.org/1999/xlink" x="0px" y="0px"
	 viewBox="0 0 24 24" style="enable-background:new 0 0 24 24;" xml:space="preserve">
<title>FLT-26278 Vaue Prop Icons as SVGs</title>
<g>
	<path d="M4.013,12c0-2.1,0.9-4.2,2.4-5.6l1.6,1.6V3h-5l1.9,1.9c-3.9,3.9-3.9,10.3,0,14.2c1.9,1.801,4.4,2.9,7.1,2.9
		v-2C7.613,20,4.013,16.4,4.013,12z"/>
	<path d="M12.514,7h-1c-0.3,0-0.5,0.2-0.5,0.5v4.9c0,0.1-0.1,0.3-0.1,0.4l-2.2,2.2c-0.2,0.2-0.2,0.5,0,0.7l0.7,0.7
		c0.2,0.199,0.5,0.199,0.7,0l2.8-2.801c0.101-0.101,0.101-0.199,0.101-0.399V7.5C13.014,7.2,12.812,7,12.514,7z"/>
	<path d="M20.014,12H22c0-5.5-4.486-10-9.987-10v2C16.413,4,20.014,7.6,20.014,12z"/>
	<polygon points="20.713,14 16.213,18.7 14.413,16.7 13.014,18.1 16.213,21.5 22,15.4 	"/>
</g>
</svg>

